<?xml version="1.0" standalone="no"?><svg xmlns="http://www.w3.org/2000/svg" viewBox="0 0 1440 320"><path fill="#393A4D" fill-opacity="1" d="M0,96L75.8,64L151.6,32L227.4,288L303.2,256L378.9,0L454.7,224L530.5,160L606.3,32L682.1,256L757.9,192L833.7,160L909.5,256L985.3,0L1061.1,256L1136.8,192L1212.6,160L1288.4,64L1364.2,64L1440,96L1440,320L1364.2,320L1288.4,320L1212.6,320L1136.8,320L1061.1,320L985.3,320L909.5,320L833.7,320L757.9,320L682.1,320L606.3,320L530.5,320L454.7,320L378.9,320L303.2,320L227.4,320L151.6,320L75.8,320L0,320Z"></path></svg>